<?xml version="1.0" encoding="utf-8"?>
<svg id="master-artboard" viewBox="0 0 520.9293212890625 536.9484252929688" version="1.1" xmlns="http://www.w3.org/2000/svg" x="0px" y="0px" style="enable-background:new 0 0 1400 980;" width="516.7835693359375px" height="530.4586791992188px"><rect id="ee-background" x="0" y="0" width="520.9293212890625" height="536.9484252929688" style="fill: white; fill-opacity: 0; pointer-events: none;"/>

<path d="M 1358.699982 718.700012 A 206.100006 206.100006 0 0 1 1152.599976 924.800018 A 206.100006 206.100006 0 0 1 946.499969 718.700012 A 206.100006 206.100006 0 0 1 1152.599976 512.600006 A 206.100006 206.100006 0 0 1 1358.699982 718.700012 Z" class="st1" style="fill: rgb(230, 214, 205);" transform="matrix(1, 0, 0, 1, -893.1357421875, -443.0516052246094)"/><path class="st2" d="M1203.2,846.2c2.1-13.8,11.2-113.7,15.2-158.8c0,0,32.3-58.9,38.8-70.8c6.5-11.9-9.8-42.8-9.8-42.8&#10;&#9;&#9;&#9;&#9;l-30.4,55.5l5.7,20.1l-4.3,2l-6.7-24.3l30.7-56c0,0-33,1.9-42.5,19.2c-6,11-36.6,66.8-36.6,66.8&#10;&#9;&#9;&#9;&#9;c-35.8,27.7-115.2,89.1-125.7,98.3c-13.6,11.9-24,73.2-14.9,80.1c2.5,1.9,16.2-54.3,21.1-63.2c4.1-7.6,112.3-79.3,145.3-101&#10;&#9;&#9;&#9;&#9;l6.1,3.4c-0.5,17.1-1.7,51.2-3.1,84.9c-3.4,1.1-9.2,4.6-12.9,16.1c-3.4,10.5,1.9,16,6.5,18.6l-19.4,22l-6.2,57.8l-23.9,10.7&#10;&#9;&#9;&#9;&#9;l2.5,5.2l20.4-8.3c-9.2,10.5-16.8,19.5-15.4,20C1154.4,905.8,1200.5,864,1203.2,846.2z M1184.7,778.7c1.2-6.5,4.3-8.3,7-8.6&#10;&#9;&#9;&#9;&#9;c-0.3,6.7-0.6,13.2-0.9,19.6C1187.6,788.2,1183.6,785,1184.7,778.7z M1169.5,869.9l2.8-50.9l17.8-17.9c-1.4,26-3,46.2-4.6,49&#10;&#9;&#9;&#9;&#9;C1183.7,853.4,1177.1,861.3,1169.5,869.9z" style="fill: rgb(196, 156, 139);" transform="matrix(1, 0, 0, 1, -893.1357421875, -443.0516052246094)"/><path class="st4" d="M1198.9,834.4c2.1-13.8,11.2-113.7,15.2-158.8c0,0,32.3-58.9,38.8-70.8c6.5-11.9-9.8-42.8-9.8-42.8&#10;&#9;&#9;&#9;&#9;l-30.4,55.5l5.7,20.1l-4.3,2l-6.7-24.3l30.7-56c0,0-33,1.9-42.5,19.2c-6,11-36.6,66.8-36.6,66.8&#10;&#9;&#9;&#9;&#9;c-35.8,27.7-115.2,89.1-125.7,98.3c-13.6,11.9-24,73.2-14.9,80.1c2.5,1.9,16.2-54.3,21.1-63.2c4.1-7.6,112.3-79.3,145.3-101&#10;&#9;&#9;&#9;&#9;l6.1,3.4c-0.5,17.1-1.7,51.2-3.1,84.9c-3.4,1.1-9.2,4.6-12.9,16.1c-3.4,10.5,1.9,16,6.5,18.6l-19.4,22l-6.2,57.8l-23.9,10.7&#10;&#9;&#9;&#9;&#9;l2.5,5.2l20.4-8.3c-9.2,10.5-16.8,19.5-15.4,20C1150.1,894,1196.2,852.2,1198.9,834.4z M1180.4,766.9c1.2-6.5,4.3-8.3,7-8.6&#10;&#9;&#9;&#9;&#9;c-0.3,6.7-0.6,13.2-0.9,19.6C1183.3,776.4,1179.3,773.2,1180.4,766.9z M1165.2,858.1l2.8-50.9l17.8-17.9c-1.4,26-3,46.2-4.6,49&#10;&#9;&#9;&#9;&#9;C1179.4,841.6,1172.8,849.5,1165.2,858.1z" style="fill: rgb(255, 255, 255);" transform="matrix(1, 0, 0, 1, -893.1357421875, -443.0516052246094)"/>

</svg>
