<?xml version="1.0" encoding="utf-8"?>
<svg id="master-artboard" viewBox="0 0 485 500" version="1.1" xmlns="http://www.w3.org/2000/svg" x="0px" y="0px" style="enable-background:new 0 0 1400 980;" width="485px" height="500px"><rect id="ee-background" x="0" y="0" width="485" height="500" style="fill: white; fill-opacity: 0; pointer-events: none;"/>

<path d="M 1358.699982 261.299988 A 206.100006 206.100006 0 0 1 1152.599976 467.399994 A 206.100006 206.100006 0 0 1 946.499969 261.299988 A 206.100006 206.100006 0 0 1 1152.599976 55.199982 A 206.100006 206.100006 0 0 1 1358.699982 261.299988 Z" class="st0" style="fill: rgb(230, 214, 205);" transform="matrix(0.9999857543339145, -0.005974364498570522, 0.005974364498570522, 0.9999857543339145, -906.5401677752113, -3.1099776293340256)"/><path class="st3" d="M1018.4,361.1l46,46c8.3,8.3,21.8,8.3,30.2,0l5.6-5.6c-10,0.3-21.3-4.2-30.3-13.2&#10;&#9;&#9;&#9;&#9;c-14.7-14.7-17.6-35.8-6.4-47s32.2-8.3,47,6.4c9,9,13.5,20.3,13.2,30.3l29-29c-10,0.3-21.3-4.2-30.3-13.2&#10;&#9;&#9;&#9;&#9;c-14.7-14.7-17.6-35.8-6.4-47s32.2-8.3,47,6.4c9,9,13.5,20.3,13.2,30.3l29-29c-10,0.3-21.3-4.2-30.3-13.2&#10;&#9;&#9;&#9;&#9;c-14.7-14.7-17.6-35.8-6.4-47c11.2-11.2,32.2-8.3,47,6.4c9,9,13.5,20.3,13.2,30.3l29-29c-10,0.3-21.3-4.2-30.3-13.2&#10;&#9;&#9;&#9;&#9;c-14.7-14.7-17.6-35.8-6.4-47c11.2-11.2,32.2-8.3,47,6.4c9,9,13.5,20.3,13.2,30.3l5.6-5.6c8.3-8.3,8.3-21.8,0-30.2l-46-46&#10;&#9;&#9;&#9;&#9;c-8.3-8.3-21.8-8.3-30.2,0L1018.4,331C1010.1,339.3,1010.1,352.8,1018.4,361.1z" style="fill: rgb(196, 156, 139);" transform="matrix(0.982354041113283, -0.18704942396946705, 0.18704942396946705, 0.982354041113283, -935.7029764149464, 210.4092101921931)"/><path class="st4" d="M1014.1,349.3l46,46c8.3,8.3,21.8,8.3,30.2,0l5.6-5.6c-10,0.3-21.3-4.2-30.3-13.2&#10;&#9;&#9;&#9;&#9;c-14.7-14.7-17.6-35.8-6.4-47s32.2-8.3,47,6.4c9,9,13.5,20.3,13.2,30.3l29-29c-10,0.3-21.3-4.2-30.3-13.2&#10;&#9;&#9;&#9;&#9;c-14.7-14.7-17.6-35.8-6.4-47c11.2-11.2,32.2-8.3,47,6.4c9,9,13.5,20.3,13.2,30.3l29-29c-10,0.3-21.3-4.2-30.3-13.2&#10;&#9;&#9;&#9;&#9;c-14.7-14.7-17.6-35.8-6.4-47s32.2-8.3,47,6.4c9,9,13.5,20.3,13.2,30.3l29-29c-10,0.3-21.3-4.2-30.3-13.2&#10;&#9;&#9;&#9;&#9;c-14.7-14.7-17.6-35.8-6.4-47c11.2-11.2,32.2-8.3,47,6.4c9,9,13.5,20.3,13.2,30.3l5.6-5.6c8.3-8.3,8.3-21.8,0-30.2l-46-46&#10;&#9;&#9;&#9;&#9;c-8.3-8.3-21.8-8.3-30.2,0l-191.8,191.8C1005.8,327.5,1005.8,341,1014.1,349.3z" style="fill: rgb(255, 255, 255);" transform="matrix(0.9840874957495448, -0.17770528921222775, 0.17770528921222775, 0.9840874957495448, -933.1211108134127, 198.2172071868858)"/>

</svg>