<?xml version="1.0" encoding="utf-8"?>
<svg id="master-artboard" viewBox="0 0 506.11297607421875 513.2802734375" version="1.1" xmlns="http://www.w3.org/2000/svg" x="0px" y="0px" style="enable-background:new 0 0 1400 980;" width="516.7835693359375px" height="513.2802734375px"><rect id="ee-background" x="0" y="0" width="506.11297607421875" height="530.4586791992188px" style="fill: white; fill-opacity: 0; pointer-events: none;"/>

<g transform="matrix(1, 0, 0, 1, 0, -7.910503387450262)">
		<path d="M 463.300018 261.299988 A 206.100006 206.100006 0 0 1 257.200012 467.399994 A 206.100006 206.100006 0 0 1 51.100006 261.299988 A 206.100006 206.100006 0 0 1 257.200012 55.199982 A 206.100006 206.100006 0 0 1 463.300018 261.299988 Z" class="st0" style="fill: rgb(230, 214, 205);"/>
	</g><path class="st3" d="M170.6,417.2c11.7,6.9,27,3,33.9-8.7L356,153c6.9-11.7,3-27-8.7-33.9c-11.7-6.9-27-3-33.9,8.7L161.9,383.3&#10;&#9;&#9;&#9;&#9;C155,395,158.9,410.2,170.6,417.2z M315.7,135.4c6.7-11.3,19.5-16.2,28.4-10.9c9,5.3,10.8,18.9,4.1,30.2l-73,123.1l-32.6-19.3&#10;&#9;&#9;&#9;&#9;L315.7,135.4z" style="fill: rgb(196, 156, 139);" transform="matrix(1, 0, 0, 1, 0, -7.910503387448443)"/><path class="st4" d="M166.3,405.4c11.7,6.9,27,3,33.9-8.7l151.5-255.5c6.9-11.7,3-27-8.7-33.9c-11.7-6.9-27-3-33.9,8.7&#10;&#9;&#9;&#9;&#9;L157.6,371.4C150.7,383.2,154.6,398.4,166.3,405.4z M311.4,123.6c6.7-11.3,19.5-16.2,28.4-10.9c9,5.3,10.8,18.9,4.1,30.2&#10;&#9;&#9;&#9;&#9;l-73,123.1l-32.6-19.3L311.4,123.6z" style="fill: rgb(255, 255, 255);" transform="matrix(1, 0, 0, 1, 0, -7.910503387448443)"/>

</svg>
