<?xml version="1.0" encoding="utf-8"?>
<svg id="master-artboard" viewBox="0 0 1400 980" version="1.1" xmlns="http://www.w3.org/2000/svg" x="0px" y="0px" style="enable-background:new 0 0 1400 980;" width="1400px" height="980px"><rect id="ee-background" x="0" y="0" width="1400" height="980" style="fill: rgb(255, 255, 255); fill-opacity: 1; pointer-events: none;"/>

<g transform="matrix(1, 0, 0, 1, 0, 0)">
		<path d="M 463.300018 261.299988 A 206.100006 206.100006 0 0 1 257.200012 467.399994 A 206.100006 206.100006 0 0 1 51.100006 261.299988 A 206.100006 206.100006 0 0 1 257.200012 55.199982 A 206.100006 206.100006 0 0 1 463.300018 261.299988 Z" class="st0" style="fill: rgb(230, 214, 205);"/>
	</g><path d="M 911.000031 261.299988 A 206.100006 206.100006 0 0 1 704.900024 467.399994 A 206.100006 206.100006 0 0 1 498.800018 261.299988 A 206.100006 206.100006 0 0 1 704.900024 55.199982 A 206.100006 206.100006 0 0 1 911.000031 261.299988 Z" class="st1" style="fill: rgb(230, 214, 205);" transform="matrix(1, 0, 0, 1, 0, 0)"/><path d="M 1358.699982 261.299988 A 206.100006 206.100006 0 0 1 1152.599976 467.399994 A 206.100006 206.100006 0 0 1 946.499969 261.299988 A 206.100006 206.100006 0 0 1 1152.599976 55.199982 A 206.100006 206.100006 0 0 1 1358.699982 261.299988 Z" class="st0" style="fill: rgb(230, 214, 205);" transform="matrix(1, 0, 0, 1, 0, 0)"/><path d="M 463.300018 718.700012 A 206.100006 206.100006 0 0 1 257.200012 924.800018 A 206.100006 206.100006 0 0 1 51.100006 718.700012 A 206.100006 206.100006 0 0 1 257.200012 512.600006 A 206.100006 206.100006 0 0 1 463.300018 718.700012 Z" class="st1" style="fill: rgb(230, 214, 205);" transform="matrix(1, 0, 0, 1, 0, 0)"/><path d="M 911.000031 718.700012 A 206.100006 206.100006 0 0 1 704.900024 924.800018 A 206.100006 206.100006 0 0 1 498.800018 718.700012 A 206.100006 206.100006 0 0 1 704.900024 512.600006 A 206.100006 206.100006 0 0 1 911.000031 718.700012 Z" class="st0" style="fill: rgb(230, 214, 205);" transform="matrix(1, 0, 0, 1, 0, 0)"/><path d="M 1358.699982 718.700012 A 206.100006 206.100006 0 0 1 1152.599976 924.800018 A 206.100006 206.100006 0 0 1 946.499969 718.700012 A 206.100006 206.100006 0 0 1 1152.599976 512.600006 A 206.100006 206.100006 0 0 1 1358.699982 718.700012 Z" class="st1" style="fill: rgb(230, 214, 205);" transform="matrix(1, 0, 0, 1, 0, 0)"/><g transform="matrix(1, 0, 0, 1, 0, 0)">
			<path class="st2" d="M293.4,727.2c0.3-1,0.5-2,0.5-3.1V586.9c0-6.1-5-11-11-11h-49c-6.1,0-11,5-11,11v137.3&#10;&#9;&#9;&#9;&#9;c0,1.8,0.5,3.4,1.2,4.9c-14,16.8-56.1,69.3-61.7,101.7c-6.7,38.9,33.1,66.7,33.1,66.7h129.1c0,0,40.3-20.2,36.5-60.5&#10;&#9;&#9;&#9;&#9;C358,804.6,311.5,748.1,293.4,727.2z M312.4,880.2H208.3c0,0-32.1-22.4-26.7-53.8c5.4-31.3,56.6-91.2,56.6-91.2l11.5,0.3v81.3&#10;&#9;&#9;&#9;&#9;H242v40.3h32.6v-40.3H267V736l14.4,0.4c0,0,57.3,62.5,60.4,95C344.9,863.9,312.4,880.2,312.4,880.2z" style="fill: rgb(196, 156, 139);"/>
		</g><path class="st3" d="M1018.4,361.1l46,46c8.3,8.3,21.8,8.3,30.2,0l5.6-5.6c-10,0.3-21.3-4.2-30.3-13.2&#10;&#9;&#9;&#9;&#9;c-14.7-14.7-17.6-35.8-6.4-47s32.2-8.3,47,6.4c9,9,13.5,20.3,13.2,30.3l29-29c-10,0.3-21.3-4.2-30.3-13.2&#10;&#9;&#9;&#9;&#9;c-14.7-14.7-17.6-35.8-6.4-47s32.2-8.3,47,6.4c9,9,13.5,20.3,13.2,30.3l29-29c-10,0.3-21.3-4.2-30.3-13.2&#10;&#9;&#9;&#9;&#9;c-14.7-14.7-17.6-35.8-6.4-47c11.2-11.2,32.2-8.3,47,6.4c9,9,13.5,20.3,13.2,30.3l29-29c-10,0.3-21.3-4.2-30.3-13.2&#10;&#9;&#9;&#9;&#9;c-14.7-14.7-17.6-35.8-6.4-47c11.2-11.2,32.2-8.3,47,6.4c9,9,13.5,20.3,13.2,30.3l5.6-5.6c8.3-8.3,8.3-21.8,0-30.2l-46-46&#10;&#9;&#9;&#9;&#9;c-8.3-8.3-21.8-8.3-30.2,0L1018.4,331C1010.1,339.3,1010.1,352.8,1018.4,361.1z" style="fill: rgb(196, 156, 139);" transform="matrix(1, 0, 0, 1, 0, 0)"/><path class="st3" d="M170.6,417.2c11.7,6.9,27,3,33.9-8.7L356,153c6.9-11.7,3-27-8.7-33.9c-11.7-6.9-27-3-33.9,8.7L161.9,383.3&#10;&#9;&#9;&#9;&#9;C155,395,158.9,410.2,170.6,417.2z M315.7,135.4c6.7-11.3,19.5-16.2,28.4-10.9c9,5.3,10.8,18.9,4.1,30.2l-73,123.1l-32.6-19.3&#10;&#9;&#9;&#9;&#9;L315.7,135.4z" style="fill: rgb(196, 156, 139);" transform="matrix(1, 0, 0, 1, 0, 0)"/><path class="st3" d="M580.9,855.9c16,21.9,49.9,34.9,68,13.1c-4.6,28,27.5,45,54.5,42.7c27.1-2.3,59.3-53.5,36.5-80.1&#10;&#9;&#9;&#9;&#9;c-22.8-26.6-41.7-26.3-43.5-31.2c-1.8-4.9,69.3-152.1,69.3-152.1l13.8-66L738.7,636c0,0-64.4,150.3-69.3,152.1&#10;&#9;&#9;&#9;&#9;c-4.9,1.8-17-12.6-52.1-12.3C582.3,776.1,564.9,834,580.9,855.9z M729.1,859.5c-0.3,29.5-27.9,43.1-49.6,30.8&#10;&#9;&#9;&#9;&#9;c-19.7-11.2-9-29.3,0.9-52.9C690.3,813.7,729.4,830,729.1,859.5z M726.6,698.3c4,1.8,5.7,6.5,3.9,10.4c-1.8,4-6.5,5.7-10.4,3.9&#10;&#9;&#9;&#9;&#9;c-4-1.8-5.7-6.5-3.9-10.4C718,698.2,722.7,696.5,726.6,698.3z M603.5,802.3c22-19.6,60-0.9,48.7,22.1c-11.3,23-17.9,43-39.3,35.4&#10;&#9;&#9;&#9;&#9;C589.3,851.7,581.5,822,603.5,802.3z" style="fill: rgb(196, 156, 139);" transform="matrix(1, 0, 0, 1, 0, 0)"/><path class="st2" d="M1203.2,846.2c2.1-13.8,11.2-113.7,15.2-158.8c0,0,32.3-58.9,38.8-70.8c6.5-11.9-9.8-42.8-9.8-42.8&#10;&#9;&#9;&#9;&#9;l-30.4,55.5l5.7,20.1l-4.3,2l-6.7-24.3l30.7-56c0,0-33,1.9-42.5,19.2c-6,11-36.6,66.8-36.6,66.8&#10;&#9;&#9;&#9;&#9;c-35.8,27.7-115.2,89.1-125.7,98.3c-13.6,11.9-24,73.2-14.9,80.1c2.5,1.9,16.2-54.3,21.1-63.2c4.1-7.6,112.3-79.3,145.3-101&#10;&#9;&#9;&#9;&#9;l6.1,3.4c-0.5,17.1-1.7,51.2-3.1,84.9c-3.4,1.1-9.2,4.6-12.9,16.1c-3.4,10.5,1.9,16,6.5,18.6l-19.4,22l-6.2,57.8l-23.9,10.7&#10;&#9;&#9;&#9;&#9;l2.5,5.2l20.4-8.3c-9.2,10.5-16.8,19.5-15.4,20C1154.4,905.8,1200.5,864,1203.2,846.2z M1184.7,778.7c1.2-6.5,4.3-8.3,7-8.6&#10;&#9;&#9;&#9;&#9;c-0.3,6.7-0.6,13.2-0.9,19.6C1187.6,788.2,1183.6,785,1184.7,778.7z M1169.5,869.9l2.8-50.9l17.8-17.9c-1.4,26-3,46.2-4.6,49&#10;&#9;&#9;&#9;&#9;C1183.7,853.4,1177.1,861.3,1169.5,869.9z" style="fill: rgb(196, 156, 139);" transform="matrix(1, 0, 0, 1, 0, 0)"/><path class="st2" d="M636.9,422.5c9.9-3.9,185.3-254,185.3-254l0.7-18.3c0,0-35.3-12.9-55.9-36.9l-12.8,8.3&#10;&#9;&#9;&#9;&#9;c0,0-161.5,260.3-163.1,270.7C589.5,402.7,627,426.4,636.9,422.5z M774.3,166.1c5.6,3.7,7.2,11.3,3.5,16.9&#10;&#9;&#9;&#9;&#9;c-3.7,5.6-11.3,7.2-16.9,3.5c-5.6-3.7-7.2-11.3-3.5-16.9C761.2,163.9,768.7,162.4,774.3,166.1z M633.3,343l33.7,22.3&#10;&#9;&#9;&#9;&#9;c2.8,1.8,3.6,5.6,1.7,8.4c-1.8,2.8-5.6,3.6-8.4,1.7l-33.7-22.3c-2.8-1.8-3.6-5.6-1.7-8.4C626.7,341.9,630.5,341.1,633.3,343z&#10;&#9;&#9;&#9;&#9; M618.9,364.7l33.7,22.3c2.8,1.8,3.6,5.6,1.7,8.4c-1.8,2.8-5.6,3.6-8.4,1.7l-33.7-22.3c-2.8-1.8-3.6-5.6-1.7-8.4&#10;&#9;&#9;&#9;&#9;C612.3,363.7,616.1,362.9,618.9,364.7z" style="fill: rgb(196, 156, 139);" transform="matrix(1, 0, 0, 1, 0, 0)"/><g transform="matrix(1, 0, 0, 1, 0, 0)">
			<path class="st4" d="M289.1,715.4c0.3-1,0.5-2,0.5-3.1V575.1c0-6.1-5-11-11-11h-49c-6.1,0-11,5-11,11v137.3&#10;&#9;&#9;&#9;&#9;c0,1.8,0.5,3.4,1.2,4.9c-14,16.8-56.1,69.3-61.7,101.7c-6.7,38.9,33.1,66.7,33.1,66.7h129.1c0,0,40.3-20.2,36.5-60.5&#10;&#9;&#9;&#9;&#9;C353.7,792.7,307.2,736.3,289.1,715.4z M308.1,868.4H204c0,0-32.1-22.4-26.7-53.8c5.4-31.3,56.6-91.2,56.6-91.2l11.5,0.3V805&#10;&#9;&#9;&#9;&#9;h-7.7v40.3h32.6V805h-7.7v-80.8l14.4,0.4c0,0,57.3,62.5,60.4,95C340.6,852.1,308.1,868.4,308.1,868.4z" style="fill: rgb(255, 255, 255);"/>
		</g><path class="st4" d="M1014.1,349.3l46,46c8.3,8.3,21.8,8.3,30.2,0l5.6-5.6c-10,0.3-21.3-4.2-30.3-13.2&#10;&#9;&#9;&#9;&#9;c-14.7-14.7-17.6-35.8-6.4-47s32.2-8.3,47,6.4c9,9,13.5,20.3,13.2,30.3l29-29c-10,0.3-21.3-4.2-30.3-13.2&#10;&#9;&#9;&#9;&#9;c-14.7-14.7-17.6-35.8-6.4-47c11.2-11.2,32.2-8.3,47,6.4c9,9,13.5,20.3,13.2,30.3l29-29c-10,0.3-21.3-4.2-30.3-13.2&#10;&#9;&#9;&#9;&#9;c-14.7-14.7-17.6-35.8-6.4-47s32.2-8.3,47,6.4c9,9,13.5,20.3,13.2,30.3l29-29c-10,0.3-21.3-4.2-30.3-13.2&#10;&#9;&#9;&#9;&#9;c-14.7-14.7-17.6-35.8-6.4-47c11.2-11.2,32.2-8.3,47,6.4c9,9,13.5,20.3,13.2,30.3l5.6-5.6c8.3-8.3,8.3-21.8,0-30.2l-46-46&#10;&#9;&#9;&#9;&#9;c-8.3-8.3-21.8-8.3-30.2,0l-191.8,191.8C1005.8,327.5,1005.8,341,1014.1,349.3z" style="fill: rgb(255, 255, 255);" transform="matrix(1, 0, 0, 1, 0, 0)"/><path class="st4" d="M166.3,405.4c11.7,6.9,27,3,33.9-8.7l151.5-255.5c6.9-11.7,3-27-8.7-33.9c-11.7-6.9-27-3-33.9,8.7&#10;&#9;&#9;&#9;&#9;L157.6,371.4C150.7,383.2,154.6,398.4,166.3,405.4z M311.4,123.6c6.7-11.3,19.5-16.2,28.4-10.9c9,5.3,10.8,18.9,4.1,30.2&#10;&#9;&#9;&#9;&#9;l-73,123.1l-32.6-19.3L311.4,123.6z" style="fill: rgb(255, 255, 255);" transform="matrix(1, 0, 0, 1, 0, 0)"/><path class="st4" d="M576.6,844.1c16,21.9,49.9,34.9,68,13.1c-4.6,28,27.5,45,54.5,42.7c27.1-2.3,59.3-53.5,36.5-80.1&#10;&#9;&#9;&#9;&#9;c-22.8-26.6-41.7-26.3-43.5-31.2c-1.8-4.9,69.3-152.1,69.3-152.1l13.8-66l-40.7,53.8c0,0-64.4,150.3-69.3,152.1&#10;&#9;&#9;&#9;&#9;c-4.9,1.8-17-12.6-52.1-12.3C578,764.3,560.6,822.2,576.6,844.1z M724.8,847.7c-0.3,29.5-27.9,43.1-49.6,30.8&#10;&#9;&#9;&#9;&#9;c-19.7-11.2-9-29.3,0.9-52.9C686,801.9,725.1,818.2,724.8,847.7z M722.3,686.5c4,1.8,5.7,6.5,3.9,10.4c-1.8,4-6.5,5.7-10.4,3.9&#10;&#9;&#9;&#9;&#9;c-4-1.8-5.7-6.5-3.9-10.4C713.7,686.4,718.4,684.6,722.3,686.5z M599.2,790.5c22-19.6,60-0.9,48.7,22.1&#10;&#9;&#9;&#9;&#9;c-11.3,23-17.9,43-39.3,35.4C585,839.9,577.2,810.1,599.2,790.5z" style="fill: rgb(255, 255, 255);" transform="matrix(1, 0, 0, 1, 0, 0)"/><path class="st4" d="M1198.9,834.4c2.1-13.8,11.2-113.7,15.2-158.8c0,0,32.3-58.9,38.8-70.8c6.5-11.9-9.8-42.8-9.8-42.8&#10;&#9;&#9;&#9;&#9;l-30.4,55.5l5.7,20.1l-4.3,2l-6.7-24.3l30.7-56c0,0-33,1.9-42.5,19.2c-6,11-36.6,66.8-36.6,66.8&#10;&#9;&#9;&#9;&#9;c-35.8,27.7-115.2,89.1-125.7,98.3c-13.6,11.9-24,73.2-14.9,80.1c2.5,1.9,16.2-54.3,21.1-63.2c4.1-7.6,112.3-79.3,145.3-101&#10;&#9;&#9;&#9;&#9;l6.1,3.4c-0.5,17.1-1.7,51.2-3.1,84.9c-3.4,1.1-9.2,4.6-12.9,16.1c-3.4,10.5,1.9,16,6.5,18.6l-19.4,22l-6.2,57.8l-23.9,10.7&#10;&#9;&#9;&#9;&#9;l2.5,5.2l20.4-8.3c-9.2,10.5-16.8,19.5-15.4,20C1150.1,894,1196.2,852.2,1198.9,834.4z M1180.4,766.9c1.2-6.5,4.3-8.3,7-8.6&#10;&#9;&#9;&#9;&#9;c-0.3,6.7-0.6,13.2-0.9,19.6C1183.3,776.4,1179.3,773.2,1180.4,766.9z M1165.2,858.1l2.8-50.9l17.8-17.9c-1.4,26-3,46.2-4.6,49&#10;&#9;&#9;&#9;&#9;C1179.4,841.6,1172.8,849.5,1165.2,858.1z" style="fill: rgb(255, 255, 255);" transform="matrix(1, 0, 0, 1, 0, 0)"/><path class="st4" d="M632.6,410.7c9.9-3.9,185.3-254,185.3-254l0.7-18.3c0,0-35.3-12.9-55.9-36.9l-12.8,8.3&#10;&#9;&#9;&#9;&#9;c0,0-161.5,260.3-163.1,270.7C585.2,390.8,622.7,414.6,632.6,410.7z M770,154.3c5.6,3.7,7.2,11.3,3.5,16.9s-11.3,7.2-16.9,3.5&#10;&#9;&#9;&#9;&#9;c-5.6-3.7-7.2-11.3-3.5-16.9C756.9,152.1,764.4,150.6,770,154.3z M629,331.2l33.7,22.3c2.8,1.8,3.6,5.6,1.7,8.4&#10;&#9;&#9;&#9;&#9;c-1.8,2.8-5.6,3.6-8.4,1.7l-33.7-22.3c-2.8-1.8-3.6-5.6-1.7-8.4C622.4,330.1,626.2,329.3,629,331.2z M614.6,352.9l33.7,22.3&#10;&#9;&#9;&#9;&#9;c2.8,1.8,3.6,5.6,1.7,8.4c-1.8,2.8-5.6,3.6-8.4,1.7l-33.7-22.3c-2.8-1.8-3.6-5.6-1.7-8.4C608,351.9,611.8,351.1,614.6,352.9z" style="fill: rgb(255, 255, 255);" transform="matrix(1, 0, 0, 1, 0, 0)"/>
<g class="st5" style="opacity: 0.28;" transform="matrix(1, 0, 0, 1, 0, 0)">
		<g>
			<g>
				<path class="st6" d="M732.3,937.7c0.8,0,1.6,0.7,1.6,0.7L720,968.2c-1.5,0-5.2,0.2-6.1,0.2c-0.8,0-1.6-0.7-1.6-0.7l-4.8-29.8&#10;&#9;&#9;&#9;&#9;&#9;c2.9,0,6.5-0.2,7.6-0.2c0.8,0,1.6,0.7,1.6,0.7l1.5,14.6c0.1,1.3,0.1,3,0.1,4.8c0.5-2,1-3.9,1.5-5.2l5.8-14.7&#10;&#9;&#9;&#9;&#9;&#9;C728.1,937.9,731.3,937.7,732.3,937.7L732.3,937.7z" style="fill: rgb(65, 64, 66);"/>
			</g>
			<g>
				<path class="st6" d="M746.6,952.4c0,3.2-1.8,5.4-6.3,6.3l-4.7,1c0.4,2,1.6,3,3.8,3c2.6,0,4.4-2,4.4-2s1.3,0.7,1.3,2.3&#10;&#9;&#9;&#9;&#9;&#9;c0,2.7-4.1,5.6-9,5.6c-4.9,0-8.1-3.1-8.1-8.3c0-6,4.3-14.2,11.9-14.2C744,946.1,746.6,948.6,746.6,952.4L746.6,952.4z&#10;&#9;&#9;&#9;&#9;&#9; M738.6,955.5c1-0.3,1.3-1.2,1.3-2.1c0-0.9-0.3-2.2-1.3-2.2c-1.9,0-2.7,3-3,5.3L738.6,955.5z" style="fill: rgb(65, 64, 66);"/>
			</g>
			<g>
				<path class="st6" d="M759.4,946.1c3.8,0,6.7,2,6.7,4.7c0,3.3-4,4.5-4,4.5s-1.2-3.6-3.9-3.6c-1.8,0-2.9,1.8-2.9,5.8&#10;&#9;&#9;&#9;&#9;&#9;c0,3.6,1,5.2,3.3,5.2c2.4,0,3.9-1.6,3.9-1.6s1.3,0.7,1.3,2.2c0,2.6-4,5.3-8.6,5.3c-4.9,0-8-3.1-8-8.2&#10;&#9;&#9;&#9;&#9;&#9;C747.3,954.3,751.7,946.1,759.4,946.1L759.4,946.1z" style="fill: rgb(65, 64, 66);"/>
			</g>
			<g>
				<path class="st6" d="M777.8,941.3c0.9,0,1.5,0.7,1.5,0.7l-0.7,4.5h4.8l-1.1,3.5c-0.4,1.1-0.9,1.7-2,1.7h-2.5l-1.4,8.9&#10;&#9;&#9;&#9;&#9;&#9;c-0.2,1.4,0.1,2.1,1.1,2.1c0.9,0,1.8-0.5,1.8-0.5s1.3,0.7,1.3,2.2c0,2.2-3.1,4.3-7,4.3c-4.1,0-5.8-2.5-5.1-7l1.6-9.9h-2.6&#10;&#9;&#9;&#9;&#9;&#9;l1.1-3.6c0.3-0.9,1.1-1.6,2-1.6h1.3l1.5-4.2C775.2,941.9,777,941.3,777.8,941.3L777.8,941.3z" style="fill: rgb(65, 64, 66);"/>
			</g>
			<g>
				<path class="st6" d="M801.2,952.4c0,3.2-1.8,5.4-6.3,6.3l-4.7,1c0.4,2,1.6,3,3.8,3c2.6,0,4.4-2,4.4-2s1.3,0.7,1.3,2.3&#10;&#9;&#9;&#9;&#9;&#9;c0,2.7-4.1,5.6-9,5.6c-4.9,0-8.1-3.1-8.1-8.3c0-6,4.3-14.2,11.9-14.2C798.6,946.1,801.2,948.6,801.2,952.4L801.2,952.4z&#10;&#9;&#9;&#9;&#9;&#9; M793.2,955.5c1-0.3,1.3-1.2,1.3-2.1c0-0.9-0.3-2.2-1.3-2.2c-1.9,0-2.7,3-3,5.3L793.2,955.5z" style="fill: rgb(65, 64, 66);"/>
			</g>
			<g>
				<path class="st6" d="M820.5,952.4c0,3.2-1.8,5.4-6.3,6.3l-4.7,1c0.4,2,1.6,3,3.8,3c2.6,0,4.4-2,4.4-2s1.3,0.7,1.3,2.3&#10;&#9;&#9;&#9;&#9;&#9;c0,2.7-4.1,5.6-9,5.6c-4.9,0-8.1-3.1-8.1-8.3c0-6,4.3-14.2,11.9-14.2C817.9,946.1,820.5,948.6,820.5,952.4L820.5,952.4z&#10;&#9;&#9;&#9;&#9;&#9; M812.5,955.5c1-0.3,1.3-1.2,1.3-2.1c0-0.9-0.3-2.2-1.3-2.2c-1.9,0-2.7,3-3,5.3L812.5,955.5z" style="fill: rgb(65, 64, 66);"/>
			</g>
			<g>
				<path class="st6" d="M836.3,960.5c0,0,1.6,1.5,1.6,4c0,3.3-2.8,4.2-5.2,4.2c-3.1,0-5.3-1.5-7.6-2.3c-0.6,0.7-1.3,1.5-1.9,2.3&#10;&#9;&#9;&#9;&#9;&#9;c0,0-3.5-0.1-3.5-2.4c0-2.9,4.8-7.8,9.9-13.4c-0.6-0.1-1.2-0.2-1.7-0.2c-2.9,0-4.1,1.5-4.1,1.5s-1.5-1.7-1.4-4&#10;&#9;&#9;&#9;&#9;&#9;c0.2-3.1,3.1-4,5.5-4c2.5,0,4.3,1,6.1,1.7l1.5-1.7c0,0,3.5,0.1,3.5,2.5c0,2.8-4.6,7.6-9.6,13c1.1,0.3,2,0.5,3,0.5&#10;&#9;&#9;&#9;&#9;&#9;C835.1,962.2,836.3,960.5,836.3,960.5L836.3,960.5z" style="fill: rgb(65, 64, 66);"/>
			</g>
			<g>
				<path class="st6" d="M858.7,966.7c-1.2,7.6-6.4,11.4-13,11.4c-4.2,0-7.3-2.2-7.3-4.8c0-1.7,1.4-2.5,1.4-2.5s1.4,1.3,4.2,1.3&#10;&#9;&#9;&#9;&#9;&#9;c2.6,0,6.2-1.1,6.8-5.1l0.5-3.1c-1.8,2.6-4.1,4.6-7.1,4.6c-3.3,0-4.8-2.7-3.9-8.3l0.9-6c0.6-3.7,0.7-6.7,0.7-6.7&#10;&#9;&#9;&#9;&#9;&#9;c2.4-0.4,5.5-1.5,6.6-1.5c0.8,0,1.6,0.7,1.6,0.7l-1.2,7.5l-1.1,6.9c-0.1,0.6,0,1,0.6,1c2.8,0,4.3-7.9,4.3-7.9&#10;&#9;&#9;&#9;&#9;&#9;c0.6-3.7,0.7-6.7,0.7-6.7c2.4-0.4,5.5-1.5,6.6-1.5c0.9,0,1.6,0.7,1.6,0.7l-1.2,7.5L858.7,966.7z" style="fill: rgb(65, 64, 66);"/>
			</g>
		</g>
		<g>
			<path class="st6" d="M538.1,947.4h7.4c1.7,0,3,0.1,3.8,0.4c1.2,0.3,2.2,1,3,1.9c0.8,0.9,1.5,2,1.9,3.3c0.4,1.3,0.7,2.9,0.7,4.8&#10;&#9;&#9;&#9;&#9;c0,1.7-0.2,3.1-0.6,4.3c-0.5,1.5-1.2,2.7-2.2,3.6c-0.7,0.7-1.7,1.2-2.9,1.6c-0.9,0.3-2.1,0.4-3.6,0.4h-7.7V947.4z M542.2,950.8&#10;&#9;&#9;&#9;&#9;v13.4h3c1.1,0,2-0.1,2.5-0.2c0.7-0.2,1.2-0.4,1.6-0.8c0.4-0.4,0.8-1,1.1-1.9c0.3-0.9,0.4-2.1,0.4-3.7c0-1.6-0.1-2.8-0.4-3.6&#10;&#9;&#9;&#9;&#9;s-0.7-1.5-1.2-2s-1.1-0.8-1.9-0.9c-0.6-0.1-1.7-0.2-3.3-0.2H542.2z" style="fill: rgb(65, 64, 66);"/>
			<path class="st6" d="M566.4,962.9l3.9,0.6c-0.5,1.4-1.3,2.5-2.3,3.2c-1.1,0.7-2.4,1.1-4,1.1c-2.5,0-4.4-0.8-5.6-2.5&#10;&#9;&#9;&#9;&#9;c-1-1.3-1.4-3-1.4-5c0-2.4,0.6-4.3,1.9-5.7c1.3-1.4,2.9-2.1,4.8-2.1c2.2,0,3.9,0.7,5.1,2.2c1.3,1.4,1.9,3.6,1.8,6.6h-9.7&#10;&#9;&#9;&#9;&#9;c0,1.1,0.3,2,0.9,2.7c0.6,0.6,1.3,1,2.2,1c0.6,0,1.1-0.2,1.5-0.5C565.8,964.1,566.2,963.6,566.4,962.9z M566.6,959&#10;&#9;&#9;&#9;&#9;c0-1.1-0.3-2-0.9-2.6c-0.6-0.6-1.2-0.9-2-0.9c-0.8,0-1.5,0.3-2.1,0.9c-0.6,0.6-0.8,1.4-0.8,2.5H566.6z" style="fill: rgb(65, 64, 66);"/>
			<path class="st6" d="M571.6,963.4l3.9-0.6c0.2,0.8,0.5,1.3,1,1.7c0.5,0.4,1.2,0.6,2.1,0.6c1,0,1.8-0.2,2.3-0.6&#10;&#9;&#9;&#9;&#9;c0.3-0.3,0.5-0.6,0.5-1c0-0.3-0.1-0.5-0.3-0.7c-0.2-0.2-0.6-0.4-1.3-0.5c-3.1-0.7-5.1-1.3-5.9-1.9c-1.2-0.8-1.7-1.9-1.7-3.3&#10;&#9;&#9;&#9;&#9;c0-1.3,0.5-2.3,1.5-3.2c1-0.9,2.6-1.3,4.7-1.3c2,0,3.5,0.3,4.5,1c1,0.7,1.6,1.6,2,2.9l-3.6,0.7c-0.2-0.6-0.5-1-0.9-1.3&#10;&#9;&#9;&#9;&#9;c-0.4-0.3-1.1-0.5-1.9-0.5c-1,0-1.7,0.1-2.2,0.4c-0.3,0.2-0.4,0.5-0.4,0.8c0,0.3,0.1,0.5,0.4,0.7c0.3,0.3,1.6,0.6,3.6,1.1&#10;&#9;&#9;&#9;&#9;c2.1,0.5,3.5,1,4.3,1.7c0.8,0.7,1.2,1.6,1.2,2.9c0,1.3-0.6,2.5-1.7,3.5c-1.1,1-2.8,1.4-5,1.4c-2,0-3.6-0.4-4.7-1.2&#10;&#9;&#9;&#9;&#9;C572.8,965.8,572,964.7,571.6,963.4z" style="fill: rgb(65, 64, 66);"/>
			<path class="st6" d="M588.1,950.9v-3.6h3.9v3.6H588.1z M588.1,967.5v-14.6h3.9v14.6H588.1z" style="fill: rgb(65, 64, 66);"/>
			<path class="st6" d="M595,968.5l4.4,0.5c0.1,0.5,0.2,0.9,0.5,1.1c0.4,0.3,0.9,0.4,1.7,0.4c1,0,1.8-0.2,2.3-0.5&#10;&#9;&#9;&#9;&#9;c0.3-0.2,0.6-0.5,0.8-1c0.1-0.3,0.2-0.9,0.2-1.8v-2.1c-1.2,1.6-2.6,2.4-4.4,2.4c-2,0-3.5-0.8-4.7-2.5c-0.9-1.3-1.3-2.9-1.3-4.9&#10;&#9;&#9;&#9;&#9;c0-2.4,0.6-4.3,1.8-5.6c1.2-1.3,2.6-1.9,4.4-1.9c1.8,0,3.3,0.8,4.5,2.4v-2.1h3.6V966c0,1.7-0.1,3-0.4,3.9c-0.3,0.9-0.7,1.5-1.2,2&#10;&#9;&#9;&#9;&#9;c-0.5,0.5-1.2,0.9-2.1,1.1c-0.9,0.3-1.9,0.4-3.3,0.4c-2.5,0-4.2-0.4-5.3-1.3c-1-0.8-1.6-1.9-1.6-3.2&#10;&#9;&#9;&#9;&#9;C595,968.8,595,968.7,595,968.5z M598.5,959.9c0,1.6,0.3,2.7,0.9,3.4c0.6,0.7,1.3,1.1,2.2,1.1c0.9,0,1.7-0.4,2.4-1.1&#10;&#9;&#9;&#9;&#9;c0.7-0.7,1-1.8,1-3.3c0-1.5-0.3-2.6-0.9-3.4c-0.6-0.7-1.4-1.1-2.4-1.1c-0.9,0-1.7,0.4-2.3,1.1&#10;&#9;&#9;&#9;&#9;C598.8,957.3,598.5,958.4,598.5,959.9z" style="fill: rgb(65, 64, 66);"/>
			<path class="st6" d="M625.3,967.5h-3.9v-7.5c0-1.6-0.1-2.6-0.2-3.1c-0.2-0.5-0.4-0.8-0.8-1.1c-0.4-0.3-0.8-0.4-1.3-0.4&#10;&#9;&#9;&#9;&#9;c-0.7,0-1.3,0.2-1.8,0.6c-0.5,0.4-0.9,0.9-1.1,1.5c-0.2,0.6-0.3,1.7-0.3,3.4v6.6H612v-14.6h3.6v2.1c1.3-1.7,2.9-2.5,4.8-2.5&#10;&#9;&#9;&#9;&#9;c0.9,0,1.6,0.2,2.3,0.5c0.7,0.3,1.2,0.7,1.6,1.2c0.4,0.5,0.6,1,0.8,1.6c0.1,0.6,0.2,1.5,0.2,2.6V967.5z" style="fill: rgb(65, 64, 66);"/>
			<path class="st6" d="M637.2,962.9l3.9,0.6c-0.5,1.4-1.3,2.5-2.3,3.2c-1.1,0.7-2.4,1.1-4,1.1c-2.5,0-4.4-0.8-5.6-2.5&#10;&#9;&#9;&#9;&#9;c-1-1.3-1.4-3-1.4-5c0-2.4,0.6-4.3,1.9-5.7c1.3-1.4,2.9-2.1,4.8-2.1c2.2,0,3.9,0.7,5.1,2.2c1.3,1.4,1.9,3.6,1.8,6.6h-9.7&#10;&#9;&#9;&#9;&#9;c0,1.1,0.3,2,0.9,2.7c0.6,0.6,1.3,1,2.2,1c0.6,0,1.1-0.2,1.5-0.5C636.6,964.1,636.9,963.6,637.2,962.9z M637.4,959&#10;&#9;&#9;&#9;&#9;c0-1.1-0.3-2-0.9-2.6c-0.6-0.6-1.2-0.9-2-0.9c-0.8,0-1.5,0.3-2.1,0.9c-0.6,0.6-0.8,1.4-0.8,2.5H637.4z" style="fill: rgb(65, 64, 66);"/>
			<path class="st6" d="M657.2,967.5h-3.6v-2.1c-0.6,0.8-1.3,1.5-2.1,1.9c-0.8,0.4-1.6,0.6-2.5,0.6c-1.7,0-3.1-0.7-4.3-2&#10;&#9;&#9;&#9;&#9;c-1.2-1.4-1.8-3.2-1.8-5.7c0-2.5,0.6-4.4,1.7-5.7c1.2-1.3,2.6-1.9,4.4-1.9c1.6,0,3,0.7,4.2,2v-7.3h3.9V967.5z M646.9,959.9&#10;&#9;&#9;&#9;&#9;c0,1.6,0.2,2.7,0.6,3.4c0.6,1,1.5,1.5,2.6,1.5c0.9,0,1.6-0.4,2.3-1.1c0.6-0.8,0.9-1.9,0.9-3.4c0-1.7-0.3-2.9-0.9-3.6&#10;&#9;&#9;&#9;&#9;c-0.6-0.7-1.4-1.1-2.3-1.1c-0.9,0-1.7,0.4-2.3,1.1C647.2,957.4,646.9,958.5,646.9,959.9z" style="fill: rgb(65, 64, 66);"/>
			<path class="st6" d="M667.6,967.5v-20.2h3.9v7.3c1.2-1.4,2.6-2,4.2-2c1.8,0,3.3,0.6,4.4,1.9c1.2,1.3,1.7,3.1,1.7,5.6&#10;&#9;&#9;&#9;&#9;c0,2.5-0.6,4.4-1.8,5.8c-1.2,1.3-2.6,2-4.3,2c-0.8,0-1.7-0.2-2.5-0.6c-0.8-0.4-1.5-1-2.1-1.9v2.1H667.6z M671.4,959.9&#10;&#9;&#9;&#9;&#9;c0,1.5,0.2,2.6,0.7,3.4c0.7,1,1.6,1.5,2.7,1.5c0.9,0,1.6-0.4,2.2-1.1c0.6-0.7,0.9-1.9,0.9-3.4c0-1.7-0.3-2.9-0.9-3.6&#10;&#9;&#9;&#9;&#9;c-0.6-0.7-1.4-1.1-2.3-1.1c-0.9,0-1.7,0.4-2.3,1.1C671.7,957.3,671.4,958.4,671.4,959.9z" style="fill: rgb(65, 64, 66);"/>
			<path class="st6" d="M682.6,952.9h4.1l3.5,10.4l3.4-10.4h4l-5.2,14.1l-0.9,2.5c-0.3,0.9-0.7,1.5-1,2c-0.3,0.4-0.7,0.8-1.1,1.1&#10;&#9;&#9;&#9;&#9;c-0.4,0.3-0.9,0.5-1.5,0.7c-0.6,0.2-1.2,0.2-2,0.2c-0.7,0-1.5-0.1-2.2-0.2l-0.3-3c0.6,0.1,1.2,0.2,1.6,0.2c0.9,0,1.6-0.3,2-0.8&#10;&#9;&#9;&#9;&#9;c0.4-0.5,0.8-1.2,1-2L682.6,952.9z" style="fill: rgb(65, 64, 66);"/>
		</g>
	</g>
</svg>