<?xml version="1.0" encoding="utf-8"?>
<svg id="master-artboard" viewBox="0 0 530.4288330078125 510.0802001953125" version="1.1" xmlns="http://www.w3.org/2000/svg" x="0px" y="0px" style="enable-background:new 0 0 1400 980;" width="516.7835693359375px" height="530.4586791992188px"><rect id="ee-background" x="0" y="0" width="530.4288330078125" height="510.0802001953125" style="fill: white; fill-opacity: 0; pointer-events: none;"/>

<path d="M 911.000031 261.299988 A 206.100006 206.100006 0 0 1 704.900024 467.399994 A 206.100006 206.100006 0 0 1 498.800018 261.299988 A 206.100006 206.100006 0 0 1 704.900024 55.199982 A 206.100006 206.100006 0 0 1 911.000031 261.299988 Z" class="st1" style="fill: rgb(230, 214, 205);" transform="matrix(1, 0, 0, 1, -430.3938293457031, 0)"/><path class="st2" d="M636.9,422.5c9.9-3.9,185.3-254,185.3-254l0.7-18.3c0,0-35.3-12.9-55.9-36.9l-12.8,8.3&#10;&#9;&#9;&#9;&#9;c0,0-161.5,260.3-163.1,270.7C589.5,402.7,627,426.4,636.9,422.5z M774.3,166.1c5.6,3.7,7.2,11.3,3.5,16.9&#10;&#9;&#9;&#9;&#9;c-3.7,5.6-11.3,7.2-16.9,3.5c-5.6-3.7-7.2-11.3-3.5-16.9C761.2,163.9,768.7,162.4,774.3,166.1z M633.3,343l33.7,22.3&#10;&#9;&#9;&#9;&#9;c2.8,1.8,3.6,5.6,1.7,8.4c-1.8,2.8-5.6,3.6-8.4,1.7l-33.7-22.3c-2.8-1.8-3.6-5.6-1.7-8.4C626.7,341.9,630.5,341.1,633.3,343z&#10;&#9;&#9;&#9;&#9; M618.9,364.7l33.7,22.3c2.8,1.8,3.6,5.6,1.7,8.4c-1.8,2.8-5.6,3.6-8.4,1.7l-33.7-22.3c-2.8-1.8-3.6-5.6-1.7-8.4&#10;&#9;&#9;&#9;&#9;C612.3,363.7,616.1,362.9,618.9,364.7z" style="fill: rgb(196, 156, 139);" transform="matrix(1, 0, 0, 1, -430.3938293457031, 0)"/><path class="st4" d="M632.6,410.7c9.9-3.9,185.3-254,185.3-254l0.7-18.3c0,0-35.3-12.9-55.9-36.9l-12.8,8.3&#10;&#9;&#9;&#9;&#9;c0,0-161.5,260.3-163.1,270.7C585.2,390.8,622.7,414.6,632.6,410.7z M770,154.3c5.6,3.7,7.2,11.3,3.5,16.9s-11.3,7.2-16.9,3.5&#10;&#9;&#9;&#9;&#9;c-5.6-3.7-7.2-11.3-3.5-16.9C756.9,152.1,764.4,150.6,770,154.3z M629,331.2l33.7,22.3c2.8,1.8,3.6,5.6,1.7,8.4&#10;&#9;&#9;&#9;&#9;c-1.8,2.8-5.6,3.6-8.4,1.7l-33.7-22.3c-2.8-1.8-3.6-5.6-1.7-8.4C622.4,330.1,626.2,329.3,629,331.2z M614.6,352.9l33.7,22.3&#10;&#9;&#9;&#9;&#9;c2.8,1.8,3.6,5.6,1.7,8.4c-1.8,2.8-5.6,3.6-8.4,1.7l-33.7-22.3c-2.8-1.8-3.6-5.6-1.7-8.4C608,351.9,611.8,351.1,614.6,352.9z" style="fill: rgb(255, 255, 255);" transform="matrix(1, 0, 0, 1, -430.3938293457031, 0)"/>

</svg>
