<?xml version="1.0" encoding="utf-8"?>
<svg id="master-artboard" viewBox="0 0 530 516" version="1.1" xmlns="http://www.w3.org/2000/svg" x="0px" y="0px" style="enable-background:new 0 0 1400 980;" width="530px" height="516px"><rect id="ee-background" x="0" y="0" width="516.7835693359375px" height="530.4586791992188px" style="fill: white; fill-opacity: 0; pointer-events: none;"/>

<path d="M 911.000031 718.700012 A 206.100006 206.100006 0 0 1 704.900024 924.800018 A 206.100006 206.100006 0 0 1 498.800018 718.700012 A 206.100006 206.100006 0 0 1 704.900024 512.600006 A 206.100006 206.100006 0 0 1 911.000031 718.700012 Z" class="st0" style="fill: rgb(230, 214, 205);" transform="matrix(1, 0, 0, 1, -424.32612562179565, -467.8467102050781)"/><path class="st3" d="M580.9,855.9c16,21.9,49.9,34.9,68,13.1c-4.6,28,27.5,45,54.5,42.7c27.1-2.3,59.3-53.5,36.5-80.1&#10;&#9;&#9;&#9;&#9;c-22.8-26.6-41.7-26.3-43.5-31.2c-1.8-4.9,69.3-152.1,69.3-152.1l13.8-66L738.7,636c0,0-64.4,150.3-69.3,152.1&#10;&#9;&#9;&#9;&#9;c-4.9,1.8-17-12.6-52.1-12.3C582.3,776.1,564.9,834,580.9,855.9z M729.1,859.5c-0.3,29.5-27.9,43.1-49.6,30.8&#10;&#9;&#9;&#9;&#9;c-19.7-11.2-9-29.3,0.9-52.9C690.3,813.7,729.4,830,729.1,859.5z M726.6,698.3c4,1.8,5.7,6.5,3.9,10.4c-1.8,4-6.5,5.7-10.4,3.9&#10;&#9;&#9;&#9;&#9;c-4-1.8-5.7-6.5-3.9-10.4C718,698.2,722.7,696.5,726.6,698.3z M603.5,802.3c22-19.6,60-0.9,48.7,22.1c-11.3,23-17.9,43-39.3,35.4&#10;&#9;&#9;&#9;&#9;C589.3,851.7,581.5,822,603.5,802.3z" style="fill: rgb(196, 156, 139);" transform="matrix(1, 0, 0, 1, -415.09150918572533, -495.08093055708673)"/><path class="st4" d="M576.6,844.1c16,21.9,49.9,34.9,68,13.1c-4.6,28,27.5,45,54.5,42.7c27.1-2.3,59.3-53.5,36.5-80.1&#10;&#9;&#9;&#9;&#9;c-22.8-26.6-41.7-26.3-43.5-31.2c-1.8-4.9,69.3-152.1,69.3-152.1l13.8-66l-40.7,53.8c0,0-64.4,150.3-69.3,152.1&#10;&#9;&#9;&#9;&#9;c-4.9,1.8-17-12.6-52.1-12.3C578,764.3,560.6,822.2,576.6,844.1z M724.8,847.7c-0.3,29.5-27.9,43.1-49.6,30.8&#10;&#9;&#9;&#9;&#9;c-19.7-11.2-9-29.3,0.9-52.9C686,801.9,725.1,818.2,724.8,847.7z M722.3,686.5c4,1.8,5.7,6.5,3.9,10.4c-1.8,4-6.5,5.7-10.4,3.9&#10;&#9;&#9;&#9;&#9;c-4-1.8-5.7-6.5-3.9-10.4C713.7,686.4,718.4,684.6,722.3,686.5z M599.2,790.5c22-19.6,60-0.9,48.7,22.1&#10;&#9;&#9;&#9;&#9;c-11.3,23-17.9,43-39.3,35.4C585,839.9,577.2,810.1,599.2,790.5z" style="fill: rgb(255, 255, 255);" transform="matrix(1, 0, 0, 1, -413.44596910476685, -495.047119140625)"/>

</svg>
