<?xml version="1.0" encoding="utf-8"?>
<svg id="master-artboard" viewBox="0 0 516.7835693359375 530.4586791992188" version="1.1" xmlns="http://www.w3.org/2000/svg" x="0px" y="0px" style="enable-background:new 0 0 1400 980;" width="516.7835693359375px" height="530.4586791992188px"><rect id="ee-background" x="0" y="0" width="516.7835693359375" height="530.4586791992188" style="fill: white; fill-opacity: 0; pointer-events: none;"/>

<path d="M 463.300018 718.700012 A 206.100006 206.100006 0 0 1 257.200012 924.800018 A 206.100006 206.100006 0 0 1 51.100006 718.700012 A 206.100006 206.100006 0 0 1 257.200012 512.600006 A 206.100006 206.100006 0 0 1 463.300018 718.700012 Z" class="st1" style="fill: rgb(230, 214, 205);" transform="matrix(1, 0, 0, 1, 0, -449.54132080078125)"/><g transform="matrix(1, 0, 0, 1, 0, -449.54132080078125)">
			<path class="st2" d="M293.4,727.2c0.3-1,0.5-2,0.5-3.1V586.9c0-6.1-5-11-11-11h-49c-6.1,0-11,5-11,11v137.3&#10;&#9;&#9;&#9;&#9;c0,1.8,0.5,3.4,1.2,4.9c-14,16.8-56.1,69.3-61.7,101.7c-6.7,38.9,33.1,66.7,33.1,66.7h129.1c0,0,40.3-20.2,36.5-60.5&#10;&#9;&#9;&#9;&#9;C358,804.6,311.5,748.1,293.4,727.2z M312.4,880.2H208.3c0,0-32.1-22.4-26.7-53.8c5.4-31.3,56.6-91.2,56.6-91.2l11.5,0.3v81.3&#10;&#9;&#9;&#9;&#9;H242v40.3h32.6v-40.3H267V736l14.4,0.4c0,0,57.3,62.5,60.4,95C344.9,863.9,312.4,880.2,312.4,880.2z" style="fill: rgb(196, 156, 139);"/>
		</g><g transform="matrix(1, 0, 0, 1, 0, -449.54132080078125)">
			<path class="st4" d="M289.1,715.4c0.3-1,0.5-2,0.5-3.1V575.1c0-6.1-5-11-11-11h-49c-6.1,0-11,5-11,11v137.3&#10;&#9;&#9;&#9;&#9;c0,1.8,0.5,3.4,1.2,4.9c-14,16.8-56.1,69.3-61.7,101.7c-6.7,38.9,33.1,66.7,33.1,66.7h129.1c0,0,40.3-20.2,36.5-60.5&#10;&#9;&#9;&#9;&#9;C353.7,792.7,307.2,736.3,289.1,715.4z M308.1,868.4H204c0,0-32.1-22.4-26.7-53.8c5.4-31.3,56.6-91.2,56.6-91.2l11.5,0.3V805&#10;&#9;&#9;&#9;&#9;h-7.7v40.3h32.6V805h-7.7v-80.8l14.4,0.4c0,0,57.3,62.5,60.4,95C340.6,852.1,308.1,868.4,308.1,868.4z" style="fill: rgb(255, 255, 255);"/>
		</g>

</svg>